<?xml version="1.0" encoding="UTF-8"?>
<svg version="1.1" xmlns="http://www.w3.org/2000/svg" width="1075" height="944">
<path d="M0 0 C31.48439615 10.9400326 62.22530974 39.60584802 86.48828125 61.734375 C87.84444172 62.95766128 89.20649278 64.17512958 90.59936523 65.35644531 C96.91986458 70.74714119 102.77489949 76.58879321 108.64477539 82.45947266 C110.42510252 84.23761772 112.21328377 86.00759561 114.00195312 87.77734375 C120.06224293 93.80861204 125.7944801 99.89320806 131.08691406 106.61938477 C133.06424204 109.07994182 135.15493802 111.3843719 137.3125 113.6875 C143.4005551 120.38858843 148.68378339 127.68370569 154 135 C154.74902588 136.02770508 154.74902588 136.02770508 155.51318359 137.07617188 C208.12822108 209.56114368 208.12822108 209.56114368 204 238 C203.30027523 239.64622189 202.56453559 241.27726102 201.80859375 242.8984375 C197.90201865 252.09978851 195.81416866 261.80187872 193.5 271.5 C193.25977112 272.49367584 193.01954224 273.48735168 192.77203369 274.51113892 C171.74458217 361.58118826 184.43726615 449.67760276 227 529 C227.52327881 529.98057373 227.52327881 529.98057373 228.05712891 530.98095703 C236.09075 545.92630602 245.43884659 559.73478316 256 573 C257.09248047 574.38445312 257.09248047 574.38445312 258.20703125 575.796875 C269.77375316 590.21880574 282.75555524 604.18868593 297 616 C297.53544434 616.44923828 298.07088867 616.89847656 298.62255859 617.36132812 C312.98767442 629.38793673 328.13924808 640.04618421 344 650 C343.67 651.65 343.34 653.3 343 655 C338.27308435 655.2548718 334.9074342 654.47814097 330.51171875 652.76171875 C329.59419075 652.40716866 329.59419075 652.40716866 328.65812683 652.04545593 C326.66343296 651.27041788 324.67537252 650.47985463 322.6875 649.6875 C321.29385477 649.13930204 319.90013643 648.59128991 318.50634766 648.04345703 C305.85050396 643.04115593 293.37497448 637.66125376 281 632 C280.09636719 631.59072266 279.19273437 631.18144531 278.26171875 630.75976562 C264.04286015 624.2957018 250.48237745 616.87434989 237 609 C236.1136084 608.48646973 235.2272168 607.97293945 234.31396484 607.44384766 C217.2598698 597.54259995 201.27806188 586.46379924 186 574 C185.45875488 573.56316895 184.91750977 573.12633789 184.35986328 572.67626953 C169.21759596 560.3881367 154.87668672 546.48251191 143 531 C142.05693393 529.84215275 141.11002445 528.68742977 140.16015625 527.53515625 C133.18518442 519.04152113 126.86510111 510.29324154 121 501 C120.29746094 499.89011719 119.59492188 498.78023438 118.87109375 497.63671875 C63.95238425 409.08886882 45.82103456 313.66075621 64.96484375 211.82421875 C65.13067963 210.94122101 65.2965155 210.05822327 65.46737671 209.14846802 C66.16024847 205.46159941 66.85320259 201.77475959 67.55157471 198.08892822 C68.10313199 195.17086638 68.64784222 192.25159132 69.19140625 189.33203125 C69.44143654 188.02210457 69.44143654 188.02210457 69.69651794 186.68571472 C79.17483155 135.42782771 58.26392019 78.76839269 29.5625 36.75 C21.82249237 25.66870739 13.48855188 15.2583068 4.21484375 5.42578125 C2 3 2 3 0 0 Z " fill="#FFFFFF" transform="translate(131,0)"/>
<path d="M0 0 C0.66 0.33 1.32 0.66 2 1 C1.59910156 1.37769531 1.19820312 1.75539062 0.78515625 2.14453125 C-4.62791916 7.385763 -9.294316 13.12606459 -14 19 C-14.66 19.79277344 -15.32 20.58554687 -16 21.40234375 C-25.79938864 33.27619975 -33.86997904 46.38230231 -41 60 C-41.46164551 60.87849609 -41.92329102 61.75699219 -42.39892578 62.66210938 C-66.59771016 109.3192179 -74.27467124 156.20242395 -63.51914978 207.45883179 C-61.60760507 216.68426596 -60.08580581 225.97178726 -58.58547974 235.27157593 C-58.13603327 238.0566309 -57.67949118 240.84045668 -57.22241211 243.62426758 C-52.05941852 275.33594183 -51.53741731 309.27971974 -57 341 C-57.19867676 342.1947998 -57.39735352 343.38959961 -57.60205078 344.62060547 C-68.79031658 410.60204114 -95.98549115 476.37413013 -138.66259766 528.37011719 C-139.53764214 529.43652773 -140.40734836 530.50734667 -141.27099609 531.58300781 C-148.17367267 540.16299505 -155.80479893 548.0119499 -163.5625 555.8125 C-164.28681213 556.54471268 -164.28681213 556.54471268 -165.02575684 557.29171753 C-171.66802102 563.98994001 -178.59485127 570.15208275 -186 576 C-187.52173828 577.23943359 -187.52173828 577.23943359 -189.07421875 578.50390625 C-228.82805753 609.81971049 -275.11296333 632.24892528 -322.125 650.375 C-323.93846924 651.08112427 -323.93846924 651.08112427 -325.78857422 651.80151367 C-327.47490967 652.43730347 -327.47490967 652.43730347 -329.1953125 653.0859375 C-330.17516113 653.4576709 -331.15500977 653.8294043 -332.16455078 654.21240234 C-335.22853263 655.0634791 -337.83529163 655.14355741 -341 655 C-341.33 653.68 -341.66 652.36 -342 651 C-336.4231691 646.72735111 -330.70533706 642.72933661 -324.875 638.8125 C-313.81214548 631.30298567 -303.30640293 623.34482307 -293.4765625 614.265625 C-291.43534203 612.39826242 -289.36467522 610.58691797 -287.26953125 608.78125 C-275.91451687 598.86746936 -265.13439951 588.00009348 -256 576 C-254.98950162 574.71648619 -253.97767441 573.43401794 -252.96484375 572.15234375 C-213.75299312 522.1714498 -189.93096014 457.67341854 -182 395 C-181.88817383 394.13536133 -181.77634766 393.27072266 -181.66113281 392.37988281 C-176.37547338 350.27802137 -181.67577887 311.23906038 -191.5625 270.3125 C-191.79983856 269.32197632 -192.03717712 268.33145264 -192.28170776 267.31091309 C-192.97056801 264.45075848 -193.67239736 261.5941219 -194.37890625 258.73828125 C-194.58303131 257.8892775 -194.78715637 257.04027374 -194.99746704 256.1655426 C-196.6135377 249.73984423 -199.04159588 243.91680824 -202 238 C-203.87618328 208.35630412 -177.15826165 171.03687906 -161 148 C-160.62842773 147.46536133 -160.25685547 146.93072266 -159.87402344 146.37988281 C-153.57174709 137.32583576 -146.89995599 128.60480387 -140 120 C-138.85724609 118.56333984 -138.85724609 118.56333984 -137.69140625 117.09765625 C-132.93517814 111.18840314 -127.94083494 105.56711258 -122.7734375 100.01953125 C-120.74191207 97.83396345 -118.78917717 95.59385771 -116.84765625 93.328125 C-112.6145259 88.47142553 -108.07532526 83.92488185 -103.51196289 79.3815918 C-102.06475615 77.93974779 -100.62297974 76.49262884 -99.18164062 75.04492188 C-93.95731394 69.81645311 -88.62553423 64.79361532 -83 60 C-81.79652035 58.94329011 -80.59467877 57.88471155 -79.39453125 56.82421875 C-72.07063662 50.39508485 -64.64915509 44.19434026 -56.83300781 38.36914062 C-54.80565017 36.854833 -52.79010236 35.32538966 -50.7734375 33.796875 C-38.55747799 24.60421529 -25.88995584 16.21276438 -13 8 C-11.57416829 7.08080743 -10.14838153 6.16154514 -8.72265625 5.2421875 C-7.54508839 4.49350421 -6.36678273 3.7459792 -5.1875 3 C-4.21167969 2.38125 -3.23585938 1.7625 -2.23046875 1.125 C-1.49441406 0.75375 -0.75835938 0.3825 0 0 Z " fill="#FFFFFF" transform="translate(942,0)"/>
<path d="M0 0 C-5.26415094 6.20899855 -5.26415094 6.20899855 -7.98046875 9.12890625 C-35.40506532 38.65155939 -51.69560943 75.61857642 -59 115 C-59.16371094 115.87849609 -59.32742188 116.75699219 -59.49609375 117.66210938 C-64.38438559 145.23449928 -62.39525773 172.33255557 -58.19140625 199.796875 C-47.94843858 266.76870034 -54.55832653 336.9101991 -84 398 C-84.37157227 398.78020508 -84.74314453 399.56041016 -85.12597656 400.36425781 C-101.90275967 435.51185516 -127.03275515 468.18853285 -158 492 C-158.56348145 492.44520996 -159.12696289 492.89041992 -159.70751953 493.34912109 C-169.89211291 501.39503149 -180.57544059 508.26010596 -191.81665039 514.73925781 C-193.23097764 515.55593967 -194.63948512 516.38281894 -196.04077148 517.22167969 C-199.56382379 519.31125867 -201.84511298 520.50362267 -206 520 C-206.65625 518.25390625 -206.65625 518.25390625 -207 516 C-206.03125 514.08984375 -206.03125 514.08984375 -204.5 511.9375 C-180.44410106 473.73762344 -177.78582416 414.4363249 -182.20703125 371.1953125 C-182.33677841 369.91532883 -182.46652557 368.63534515 -182.60020447 367.3165741 C-184.13657117 352.62255695 -186.42253014 338.04224182 -188.72503662 323.45245361 C-189.73478076 317.04937179 -190.73299436 310.64449631 -191.72265625 304.23828125 C-191.8273951 303.56094563 -191.93213394 302.88361 -192.04004669 302.18574905 C-203.6728232 226.65223575 -191.98023103 153.84662354 -146 91.0625 C-132.06621678 72.4732526 -116.3164476 54.99605513 -97.57128906 41.16113281 C-96.1063201 40.07856719 -94.65790829 38.97369458 -93.2109375 37.8671875 C-85.82349989 32.3102654 -78.00593545 27.5955459 -70 23 C-69.40735352 22.65437012 -68.81470703 22.30874023 -68.20410156 21.95263672 C-49.28988406 10.9937328 -22.30552775 -1.2057042 0 0 Z " fill="#FFFFFF" transform="translate(764,131)"/>
<path d="M0 0 C37.25231745 -1.98261634 79.62858265 24.99353706 106.9140625 48.51171875 C109.99562941 51.29011264 113.01081779 54.12304262 116 57 C116.62841797 57.60118652 117.25683594 58.20237305 117.90429688 58.82177734 C127.09871607 67.66239386 135.44904463 76.72239316 143 87 C143.82400566 88.09391055 144.64822349 89.18766131 145.47265625 90.28125 C152.7346336 100.05157067 158.92113738 110.4652081 165 121 C165.37898437 121.65049316 165.75796875 122.30098633 166.1484375 122.97119141 C204.21646344 188.8567833 198.69469402 260.0444162 187.75430298 332.23445129 C179.09745107 389.39522038 173.42546827 459.18564847 204.54833984 511.23266602 C207.0550368 515.52094726 207.0550368 515.52094726 206.72265625 518.4140625 C206.48417969 518.93742188 206.24570312 519.46078125 206 520 C200.40632581 519.48827586 196.40774126 517.35718354 191.625 514.625 C190.83625488 514.17874268 190.04750977 513.73248535 189.23486328 513.27270508 C162.27988186 497.77615507 137.14303442 476.47907189 118 452 C116.79730469 450.48792969 116.79730469 450.48792969 115.5703125 448.9453125 C77.14958807 400.25600862 55.86476405 340.27658851 55.83203125 278.34765625 C55.82880151 276.87576773 55.8254363 275.4038795 55.82194519 273.93199158 C55.81600786 270.86375183 55.81409948 267.79554 55.81469727 264.72729492 C55.81477818 261.63348501 55.80788237 258.53982426 55.79418945 255.44604492 C55.69446429 232.53559584 56.57961489 210.12090556 60.0625 187.4375 C68.0843892 131.46911174 56.11971471 71.87661823 22.0546875 25.94921875 C15.28500564 17.08063038 7.97781723 8.7965032 0 1 C0 0.67 0 0.34 0 0 Z " fill="#FFFFFF" transform="translate(311,131)"/>
<path d="M0 0 C46.66220066 13.73310296 93.09499481 42.2570895 123 81 C123.79148437 82.01320313 124.58296875 83.02640625 125.3984375 84.0703125 C130.58096944 90.89343201 134.92923429 98.08918133 139 105.625 C139.46905762 106.4711084 139.93811523 107.3172168 140.42138672 108.18896484 C145.75950288 118.38455091 146.19372681 129.07570856 146.875 140.375 C152.60756281 221.51192028 205.24135846 297.38758373 261.375 353.5625 C262.24382812 354.44357422 263.11265625 355.32464844 264.0078125 356.23242188 C270.02153864 362.25949208 276.30482155 367.74359386 283 373 C283.76199707 373.60094482 284.52399414 374.20188965 285.30908203 374.82104492 C297.23887692 384.10259078 309.6902127 391.86721652 323 399 C324.04220703 399.56219238 325.08441406 400.12438477 326.15820312 400.70361328 C342.89998161 409.69227117 359.99724751 418.565136 377.89794922 425.04980469 C379.26137451 425.54722168 379.26137451 425.54722168 380.65234375 426.0546875 C381.46566162 426.33554199 382.27897949 426.61639648 383.11694336 426.90576172 C385 428 385 428 385.77172852 430.12158203 C385.84705811 430.74145996 385.9223877 431.36133789 386 432 C382.12361543 433.41601687 378.59853219 432.67343389 374.6484375 431.99609375 C373.56402374 431.8188829 373.56402374 431.8188829 372.45770264 431.63809204 C370.09500479 431.2478787 367.73494753 430.84399714 365.375 430.4375 C364.56722107 430.30028534 363.75944214 430.16307068 362.92718506 430.021698 C340.80713562 426.25201247 319.21181121 421.39523392 298 414 C297.15727539 413.70931641 296.31455078 413.41863281 295.44628906 413.11914062 C259.94350991 400.71439018 228.06720594 381.6561679 199 358 C198.48002441 357.58443848 197.96004883 357.16887695 197.42431641 356.74072266 C188.64850627 349.69976144 180.65588405 341.86407641 172.6875 333.9375 C172.17544006 333.43070709 171.66338013 332.92391418 171.13580322 332.40176392 C164.28487103 325.60536555 158.00311924 318.57111501 152 311 C150.9996649 309.79130638 149.99623577 308.58515949 148.98828125 307.3828125 C136.87743973 292.72838406 126.63595434 276.70004657 117.26147461 260.18359375 C116.33229804 258.57520295 115.37891175 256.98073907 114.41235352 255.39453125 C109.49532709 247.2427455 105.59222227 238.84019885 101.8125 230.125 C101.49018402 229.38734406 101.16786804 228.64968811 100.83578491 227.88967896 C94.21254579 212.7285929 87.92597189 197.44797489 82 182 C81.75098938 181.35349487 81.50197876 180.70698975 81.24542236 180.04089355 C71.06819668 153.58579465 63.02838773 126.73435745 56.375 99.1875 C48.68227406 67.51514005 35.06068956 40.77300841 14 16 C13.29488281 15.15179688 12.58976563 14.30359375 11.86328125 13.4296875 C8.6249517 9.6019092 5.22870508 6.32939872 1.28515625 3.2265625 C0.86105469 2.82179687 0.43695312 2.41703125 0 2 C0 1.34 0 0.68 0 0 Z " fill="#FFFFFF" transform="translate(0,192)"/>
<path d="M0 0 C0 3 0 3 -1.21826172 4.51123047 C-2.06541748 5.3061792 -2.06541748 5.3061792 -2.9296875 6.1171875 C-3.55520508 6.71708496 -4.18072266 7.31698242 -4.82519531 7.93505859 C-5.50163086 8.57523926 -6.17806641 9.21541992 -6.875 9.875 C-13.65170037 16.4847474 -19.58299901 23.21130126 -25 31 C-25.4429541 31.63099609 -25.8859082 32.26199219 -26.34228516 32.91210938 C-42.91863518 56.77648738 -51.55209856 83.35208811 -58.3125 111.375 C-72.64652429 170.62829165 -95.48909897 234.24437555 -130.82763672 284.33789062 C-132.02424267 286.03436986 -133.2020467 287.74290328 -134.37890625 289.453125 C-143.90206585 303.16609044 -154.60902871 315.81546323 -166 328 C-166.95148932 329.05133494 -167.90067236 330.10476126 -168.84765625 331.16015625 C-173.3204762 336.13557467 -177.80054927 340.94698893 -182.94140625 345.25 C-185.35036459 347.29784315 -187.63187433 349.46152569 -189.9375 351.625 C-238.50562608 395.88194707 -299.98261055 419.2237749 -363.8125 430.4375 C-364.5845578 430.57536926 -365.3566156 430.71323853 -366.15206909 430.85528564 C-368.35625514 431.2458994 -370.56228004 431.62323716 -372.76953125 431.99609375 C-374.04417236 432.21450928 -375.31881348 432.4329248 -376.63208008 432.65795898 C-379.76314365 432.97594522 -381.9888335 432.82736188 -385 432 C-384.77050781 430.13037109 -384.77050781 430.13037109 -384 428 C-382.14355469 426.85009766 -382.14355469 426.85009766 -379.671875 425.9140625 C-378.74165527 425.54812988 -377.81143555 425.18219727 -376.85302734 424.80517578 C-375.82902832 424.41571777 -374.8050293 424.02625977 -373.75 423.625 C-335.46038222 408.35670322 -298.01850203 388.98958925 -267.7890625 360.6015625 C-265.27850588 358.2597828 -262.71511655 356.00264209 -260.125 353.75 C-249.78281415 344.45702141 -240.62967054 333.87308576 -232 323 C-231.09402845 321.89583668 -230.18637977 320.79304802 -229.27734375 319.69140625 C-220.9391145 309.52500908 -213.41102958 298.85485868 -206 288 C-205.54383301 287.33500488 -205.08766602 286.67000977 -204.61767578 285.98486328 C-193.59047759 269.87014574 -183.21362197 253.22027715 -174 236 C-173.66162109 235.36852051 -173.32324219 234.73704102 -172.97460938 234.08642578 C-158.72907392 207.22283239 -148.56031548 177.51547454 -146.26953125 147.1015625 C-146.20911652 146.31039536 -146.14870178 145.51922821 -146.0864563 144.7040863 C-145.78919803 140.73345789 -145.5220967 136.76397103 -145.30175781 132.78833008 C-144.73212113 123.64092933 -143.26584049 116.27005541 -139 108 C-138.64059326 107.26982666 -138.28118652 106.53965332 -137.91088867 105.78735352 C-136.92605517 103.84725754 -135.88974517 101.95265708 -134.8125 100.0625 C-134.43158203 99.39138184 -134.05066406 98.72026367 -133.65820312 98.02880859 C-127.93840437 88.20052024 -120.77377406 79.60626298 -113.07421875 71.26171875 C-111.19878414 69.21675333 -109.40967467 67.12380525 -107.625 65 C-80.62379133 34.25544194 -38.53293473 12.16182956 0 0 Z " fill="#FFFFFF" transform="translate(1074,192)"/>
<path d="M0 0 C0.75 2.1875 0.75 2.1875 1 5 C-0.75 7.375 -0.75 7.375 -3 10 C-12.82718022 30.38229971 -4.88274691 55.83419479 2 76 C5.40071021 85.55056335 9.00931395 95.03064943 12.76953125 104.4453125 C23.52361561 131.64293071 26.07038686 162.40381888 14.87646484 189.98242188 C9.77870765 201.71720333 3.82091329 212.64618575 -5 222 C-5.46744629 222.51224121 -5.93489258 223.02448242 -6.41650391 223.55224609 C-17.71299573 235.87934636 -30.43849181 244.74778442 -46 251 C-46.90363281 251.37769531 -47.80726563 251.75539063 -48.73828125 252.14453125 C-58.43241237 255.80553975 -68.77376097 256.75261727 -79 258 C-79 257.34 -79 256.68 -79 256 C-77.39585164 254.77664947 -75.73894748 253.62223096 -74.0625 252.5 C-57.38590381 240.56981965 -48.49522171 222.87953927 -45 203 C-43.5483663 182.35876987 -47.45140994 166.37549902 -55.20874023 147.43017578 C-66.96206355 118.66597886 -73.88351292 89.58672941 -61.52050781 59.82910156 C-51.88516474 37.45871399 -36.95496967 13.10963295 -14.0625 2.5 C-9.30781646 0.61526058 -5.12326371 -0.14637896 0 0 Z " fill="#FFFFFF" transform="translate(512,674)"/>
<path d="M0 0 C14.15498572 0.06263268 24.9438767 8.10631983 34.71484375 17.65234375 C54.48088192 37.94640262 68.46687969 65.79579039 68.43383789 94.28222656 C68.0486995 115.49839787 60.8061332 135.39039019 52.80786133 154.7980957 C43.8323301 176.66210034 41.47658961 198.71371405 50.25 221.125 C57.22830386 236.76889909 66.16481249 247.24619281 80 257 C69.26140676 260.9925539 51.00677957 253.21349765 41 249 C31.00877952 244.3549589 22.12951078 238.45307645 14 231 C13.07574219 230.15695312 12.15148437 229.31390625 11.19921875 228.4453125 C-7.66931451 210.4379986 -20.49965359 184.24651174 -21.3359375 157.99609375 C-21.3660622 155.47670895 -21.37852185 152.95706243 -21.375 150.4375 C-21.37445618 149.77803375 -21.37391235 149.1185675 -21.37335205 148.43911743 C-21.33180256 137.44927811 -20.35320538 127.45788959 -17 117 C-16.79101074 116.33387695 -16.58202148 115.66775391 -16.36669922 114.98144531 C-14.1615594 108.09348047 -11.56106637 101.37047338 -8.859375 94.6640625 C-4.83505413 84.65334843 -1.10040773 74.67229405 1.9375 64.3125 C2.21972412 63.35786865 2.50194824 62.4032373 2.79272461 61.41967773 C5.63694327 51.40611157 7.39585023 41.42511498 7.375 31 C7.37338867 30.14277344 7.37177734 29.28554688 7.37011719 28.40234375 C7.22317217 20.7612026 6.51405645 12.48859228 0.84375 6.859375 C0.2353125 6.24578125 -0.373125 5.6321875 -1 5 C-0.75 2.25 -0.75 2.25 0 0 Z " fill="#FFFFFF" transform="translate(563,674)"/>
<path d="M0 0 C3.10802976 -0.33922449 5.95297843 -0.47431269 9.0625 -0.4375 C9.9606543 -0.42847656 10.85880859 -0.41945313 11.78417969 -0.41015625 C37.66079277 0.24749152 58.9428465 13.1707635 76.5 31.5625 C104.60063175 63.68460025 108.10604505 107.24817692 105.5 148.0625 C103.13794117 186.15816009 110.04959202 220.1495119 135 250 C135.52980469 250.67675781 136.05960938 251.35351562 136.60546875 252.05078125 C143.7404508 260.84178382 153.46540145 267.43924756 163.26953125 272.94140625 C163.84058594 273.29074219 164.41164063 273.64007812 165 274 C165 274.33 165 274.66 165 275 C131.23708795 276.81955813 95.10802734 262.20487054 70 240 C57.14847044 228.30005237 41.26284922 213.8099008 39.796875 195.45703125 C39.78140625 194.58433594 39.7659375 193.71164062 39.75 192.8125 C39.72421875 191.95269531 39.6984375 191.09289062 39.671875 190.20703125 C40.48826325 182.22780799 43.79142943 174.83076659 46.875 167.5 C60.30861607 134.57024436 64.18585383 98.68528555 51 65 C42.38299494 44.6095064 28.69469742 26.31884657 11 13 C9.80603236 12.07845219 8.61338613 11.15519051 7.421875 10.23046875 C4.29237258 7.805514 1.14973534 5.39860608 -2 3 C-1.34 2.01 -0.68 1.02 0 0 Z " fill="#FFFFFF" transform="translate(578,669)"/>
<path d="M0 0 C0.85787109 -0.00386719 1.71574219 -0.00773438 2.59960938 -0.01171875 C3.41880859 -0.01042969 4.23800781 -0.00914062 5.08203125 -0.0078125 C5.82300049 -0.00668457 6.56396973 -0.00555664 7.32739258 -0.00439453 C9.1875 0.125 9.1875 0.125 11.1875 1.125 C11.1875 2.115 11.1875 3.105 11.1875 4.125 C8.765625 6 8.765625 6 5.4375 8.125 C-1.66192144 12.81333404 -7.70011024 18.23311492 -13.8125 24.125 C-14.53050781 24.77984375 -15.24851562 25.4346875 -15.98828125 26.109375 C-37.55822052 46.339298 -48.38156987 76.24978475 -50.09375 105.20703125 C-50.68527939 129.53367743 -43.84226419 152.67524425 -34.546875 174.90234375 C-30.47340378 184.75541809 -28.54830254 195.07421202 -32.375 205.4375 C-45.73399422 233.58846014 -74.82795539 255.03170409 -103.38623047 265.75 C-120.31491698 271.75657484 -137.76802356 275.71987285 -155.8125 275.125 C-152.60756823 272.46948511 -149.40044209 270.22525878 -145.8125 268.125 C-121.38224381 252.67113673 -105.81708252 225.64220824 -98.8125 198.125 C-96.36799546 186.91421001 -95.39975468 175.99723995 -95.58700562 164.54251289 C-95.62641871 162.10361597 -95.64511672 159.66522611 -95.65942383 157.22605896 C-95.69886225 151.17533698 -95.77154546 145.12511207 -95.84362793 139.07470703 C-95.90359033 133.93142637 -95.95016909 128.78833307 -95.98031616 123.64478874 C-95.9992777 121.28143361 -96.03676498 118.91890203 -96.07543945 116.55580139 C-96.21954642 102.30953263 -94.50658241 87.91125482 -90.3125 74.25 C-90.06459717 73.44030762 -89.81669434 72.63061523 -89.5612793 71.79638672 C-84.37542743 55.9020479 -75.84373956 41.61549015 -64.8125 29.125 C-63.90951172 28.09052734 -63.90951172 28.09052734 -62.98828125 27.03515625 C-46.78713821 9.73563063 -23.50202787 -0.10838752 0 0 Z " fill="#FFFFFF" transform="translate(487.8125,668.875)"/>
<path d="M0 0 C15.04755419 11.99865896 25.61501303 26.8621978 33.97607422 44.08300781 C43.49300155 63.64331148 57.7215278 74.6201644 78.00390625 82.04296875 C80.74373598 82.91814252 83.43547267 83.60503068 86.25 84.1875 C87.4875 84.455625 88.725 84.72375 90 85 C90.33 85.66 90.66 86.32 91 87 C87.18900018 87.81964269 83.37596125 88.6293935 79.5625 89.4375 C78.49322266 89.66759766 77.42394531 89.89769531 76.32226562 90.13476562 C57.40506284 94.12646896 31.28663264 97.53411911 13.80126953 87.25097656 C6.82327005 82.40477579 4.07728443 75.1645152 1.125 67.5 C-9.32736664 41.47931551 -23.71447263 17.17794007 -50.37939453 5.25683594 C-71.51459508 -3.6765442 -94.73948858 -1.36323484 -116 6 C-114.75347656 5.96519531 -113.50695312 5.93039062 -112.22265625 5.89453125 C-83.41870724 5.33666821 -59.02061967 12.90177982 -38 33 C-37.30261719 33.66644531 -36.60523438 34.33289063 -35.88671875 35.01953125 C-27.81180437 43.53995814 -22.46389138 54.57017455 -17.875 65.25 C-8.35230485 87.41203606 6.89519587 101.66796063 29 111 C33.29393021 112.49953832 37.60664707 113.82503352 42 115 C41.67 115.66 41.34 116.32 41 117 C-22.54831853 118.06231651 -22.54831853 118.06231651 -42 104 C-42.60972656 103.59523438 -43.21945312 103.19046875 -43.84765625 102.7734375 C-53.05573794 95.93554541 -58.13902244 83.90980891 -63 73.875 C-77.93546396 43.20938836 -106.07411163 26.12650631 -136 12 C-135.67 11.34 -135.34 10.68 -135 10 C-133.18321748 9.44285336 -131.34462372 8.95659003 -129.5 8.5 C-123.68975603 6.8037632 -119.00563644 4.43187795 -113.875 1.25 C-78.73288282 -20.26323238 -34.31514184 -26.29453058 0 0 Z " fill="#FFFFFF" transform="translate(802,662)"/>
<path d="M0 0 C5.29525702 3.08121227 10.49406741 4.96800948 16.4296875 6.4921875 C13.0009967 9.31632324 9.22054648 11.14806862 5.2421875 13.0546875 C-24.57769456 27.76249468 -45.42651098 45.35551691 -60.23242188 75.50390625 C-67.21071408 89.36650693 -75.99361718 100.38158984 -90.5703125 106.4921875 C-93.53827808 107.39743038 -96.52540343 108.02867566 -99.5703125 108.6171875 C-100.30636719 108.77316406 -101.04242188 108.92914062 -101.80078125 109.08984375 C-116.1094072 111.98991702 -130.02618737 112.77322771 -144.5703125 112.6171875 C-146.23176533 112.60712006 -147.89322419 112.59800097 -149.5546875 112.58984375 C-153.56004931 112.56816861 -157.56511085 112.53385493 -161.5703125 112.4921875 C-161.9003125 111.8321875 -162.2303125 111.1721875 -162.5703125 110.4921875 C-161.39855469 110.12867188 -160.22679687 109.76515625 -159.01953125 109.390625 C-136.82847443 102.36026354 -117.94342731 90.78014305 -106.3125 69.95703125 C-104.26433339 65.88365953 -102.44190425 61.73829417 -100.6328125 57.5546875 C-90.14130063 33.31916852 -73.62779909 16.97969825 -49.16796875 6.8125 C-37.71543597 2.60950751 -26.17501443 1.31532622 -14.0703125 1.4296875 C-12.69359375 1.43645508 -12.69359375 1.43645508 -11.2890625 1.44335938 C-9.04940859 1.45502424 -6.80989705 1.47139136 -4.5703125 1.4921875 C-7.27737594 0.67524519 -9.98582646 -0.13647744 -12.6953125 -0.9453125 C-13.45585937 -1.17541016 -14.21640625 -1.40550781 -15 -1.64257812 C-35.73166363 -7.80846084 -57.53807519 -5.70689483 -76.72143555 4.08935547 C-100.29806496 16.93883506 -113.20576558 40.82010881 -122.52783203 65.05664062 C-125.83105889 73.5804936 -129.51845591 79.82404423 -137.5703125 84.4921875 C-159.73724238 93.44221553 -188.20635189 88.90137133 -210.5703125 82.4921875 C-210.5703125 81.8321875 -210.5703125 81.1721875 -210.5703125 80.4921875 C-209.68472656 80.29625 -208.79914063 80.1003125 -207.88671875 79.8984375 C-193.38819734 76.39827416 -179.49666965 70.95193865 -168.5703125 60.4921875 C-167.42175781 59.42097656 -167.42175781 59.42097656 -166.25 58.328125 C-159.850086 51.8414325 -156.26403182 44.51392897 -152.45507812 36.36962891 C-140.90947438 11.87026554 -121.73013324 -8.53805241 -96.0078125 -17.7890625 C-62.09528401 -28.57941247 -29.41369659 -17.25484329 0 0 Z " fill="#FFFFFF" transform="translate(393.5703125,666.5078125)"/>
<path d="M0 0 C27.52162095 -1.1664793 54.99355249 17.78231396 75.04296875 34.7265625 C85.113412 44.05547667 92.73428412 56.93793433 99 69 C99.48847412 69.93005859 99.48847412 69.93005859 99.98681641 70.87890625 C112.48144302 95.0031 118.24982116 120.31429558 120.22338867 147.23461914 C121.95096265 169.41508046 128.49662283 187.68109856 141 206 C142.01315395 207.65870337 143.01833386 209.32246926 144 211 C139.70992676 209.56997559 136.90119345 207.45268442 133.5 204.5 C129.28033853 200.88530792 124.99474704 197.412976 120.5625 194.0625 C114.41561687 189.38885195 108.52102218 184.4598226 102.66796875 179.42529297 C100.97671496 177.98010274 99.27156699 176.552968 97.5625 175.12890625 C63.64690608 146.73941959 63.64690608 146.73941959 61 128 C60.9020217 125.82693923 60.84607411 123.65172116 60.82421875 121.4765625 C60.23229058 85.83060248 54.77858283 52.89487532 31 25 C30.42894531 24.32710937 29.85789062 23.65421875 29.26953125 22.9609375 C21.32284975 14.36674862 10.31005896 8.2686674 0 3 C0 2.01 0 1.02 0 0 Z " fill="#FFFFFF" transform="translate(634,673)"/>
<path d="M0 0 C-0.08203125 1.78125 -0.08203125 1.78125 -1 4 C-3.22351571 5.32387945 -5.35066688 6.41888639 -7.6875 7.5 C-30.43299976 18.84402045 -44.94955647 40.44134009 -53 64 C-58.86549118 82.07528914 -60.40359769 100.52103532 -60.44604492 119.43188477 C-60.73621822 140.70795699 -72.94180884 152.5161255 -87.375 166.60546875 C-91.54152876 170.6070445 -95.78091614 174.354937 -100.33984375 177.90625 C-103.61117951 180.48104584 -106.73426559 183.20627807 -109.875 185.9375 C-116.388721 191.56359213 -123.11556027 196.83511264 -130 202 C-131.1601873 202.87365669 -132.32034325 203.747355 -133.48046875 204.62109375 C-136.3157716 206.75349309 -139.15632572 208.8787727 -142 211 C-142.66 210.67 -143.32 210.34 -144 210 C-143.443125 209.33097656 -142.88625 208.66195312 -142.3125 207.97265625 C-127.0381311 188.75068863 -121.74676651 166.63277934 -119.625 142.5625 C-116.17712383 105.80244521 -104.83380836 69.16689039 -80 41 C-79.45214844 40.3090625 -78.90429688 39.618125 -78.33984375 38.90625 C-62.06252041 18.74956459 -26.46349036 -1.12610597 0 0 Z " fill="#FFFFFF" transform="translate(441,673)"/>
<path d="M0 0 C12.69408396 10.97509342 12.69408396 10.97509342 14.25 18.89453125 C13.65574219 18.71277344 13.06148437 18.53101563 12.44921875 18.34375 C-0.9297697 14.05233367 -0.9297697 14.05233367 -14.75 11.89453125 C-15.60722656 11.84167969 -16.46445312 11.78882813 -17.34765625 11.734375 C-40.4931494 11.01789271 -61.33638368 20.69957666 -78.10791016 36.27783203 C-83.83980827 41.92110133 -89.28933342 48.20353138 -93.75 54.89453125 C-110.98224972 59.46852346 -130.7305562 55.47235679 -146.03515625 47.140625 C-153.79626477 42.63487582 -160.07103948 36.53683344 -164.75 28.89453125 C-164.75 28.23453125 -164.75 27.57453125 -164.75 26.89453125 C-163.64914063 27.05308594 -162.54828125 27.21164062 -161.4140625 27.375 C-141.8833095 29.7916624 -124.51915255 27.83640329 -107.75 16.89453125 C-105.84663899 15.34540688 -103.97189274 13.7605624 -102.125 12.14453125 C-75.04354213 -11.38113838 -30.93990618 -23.68836567 0 0 Z " fill="#FFFFFF" transform="translate(335.75,627.10546875)"/>
<path d="M0 0 C1.58355568 1.25381279 3.16701217 2.50776739 4.74560547 3.76782227 C11.75427523 9.33674282 18.73636967 13.48356156 27 17 C27.84304688 17.3609375 28.68609375 17.721875 29.5546875 18.09375 C41.24964659 22.12907135 55.91694649 20.76063294 68 19 C64.68034126 28.71691778 55.74256604 36.09715896 47 41 C32.85676919 47.62248417 19.36600279 48.63547537 4 48 C2.76507812 47.96519531 1.53015625 47.93039062 0.2578125 47.89453125 C-4.1582886 46.68195673 -5.88332923 44.10533684 -8.375 40.5 C-9.32911079 39.21170579 -10.28747176 37.9265487 -11.25 36.64453125 C-11.94996094 35.70407959 -11.94996094 35.70407959 -12.6640625 34.74462891 C-25.24641757 18.31306652 -45.86725509 7.3180817 -66.125 4.25 C-81.61018727 3.25095566 -95.48544171 5.58453034 -110 11 C-108.76700951 2.887483 -102.80409184 -2.86799806 -96.73828125 -8.046875 C-66.38086449 -29.69981135 -27.93788186 -20.70734604 0 0 Z " fill="#FFFFFF" transform="translate(836,635)"/>
</svg>
